<?xml version="1.0" encoding="UTF-8"?><svg id="Layer_1" xmlns="http://www.w3.org/2000/svg" viewBox="0 0 202.38 60"><defs><style>.cls-1{fill:#c03;}</style></defs><path class="cls-1" d="m48.28,31.28l.95-.36c7.91-2.98,11.75-7.48,11.75-13.77,0-4.35-1.74-7.9-5.32-10.85-3.79-3.07-9-4.63-15.49-4.63,0,0-37.05,0-38.61,0v8.21c.24,0,1.96,0,4.5,0v40.26H1.57v8.19h26.33v-8.19h-4.65v-17.35h9.55l10.92,17.35h-6.14v8.19h28.51v-8.19h-5.39l-12.42-18.87Zm-7.52-8.66l-.02.02c-2.03,1.59-5.03,2.39-8.91,2.39h-8.56v-15.14c5.84,0,10.56,0,10.56,0,3.3,0,5.87.93,7.62,2.73,1.28,1.26,1.92,2.86,1.92,4.75,0,2.03-.88,3.8-2.6,5.25h0Z"/><g><path d="m33.82,9.89h-10.56s0,15.14,0,15.14h8.57c3.88,0,6.88-.81,8.91-2.39l.02-.02c1.73-1.45,2.6-3.22,2.6-5.25,0-1.89-.65-3.48-1.92-4.75-1.75-1.81-4.32-2.73-7.62-2.73h0Zm5.96,11.52h0c-1.75,1.37-4.43,2.07-7.95,2.07h-7.01v-12.03h9.01c2.86,0,5.05.76,6.5,2.26l.02.02c.98.98,1.46,2.17,1.46,3.64,0,1.56-.66,2.88-2.02,4.04h0Z"/><path d="m61.54,48.59l-10.89-16.55c7.9-3.21,11.9-8.21,11.9-14.89,0-4.84-1.92-8.78-5.89-12.05C52.57,1.8,47.03.13,40.18.13H.01S.01,11.44.01,11.44h4.5v37.16H.01v11.31h29.45v-11.31h-4.65v-14.23h7.13l8.96,14.23h-4.88v11.31h31.63v-11.31h-6.11Zm4.55,9.75h-28.51v-8.19h6.14l-10.92-17.35h-9.55v17.35h4.65v8.19H1.57v-8.19h4.5V9.89H1.57V1.68h38.61c6.49,0,11.7,1.56,15.49,4.63,3.58,2.95,5.32,6.49,5.32,10.84,0,6.28-3.84,10.79-11.75,13.77l-.95.36,12.42,18.87h5.39v8.19Z"/></g><rect x="78.96" y=".12" width="1.56" height="59.78"/><g><path d="m101.55,40.07c-.77-1.32-1.09-1.87-1.87-3.27-1.98-3.59-2.58-4.56-3.3-4.88-.2-.09-.37-.14-.63-.17v8.32h-3.93v-19.94h7.43c3.53,0,5.85,2.35,5.85,5.85,0,2.98-1.98,5.45-4.45,5.51.4.32.57.49.83.83,1.03,1.29,4.08,6.49,4.79,7.75h-4.73Zm-2.09-16.44c-.46-.17-1.29-.29-2.27-.29h-1.43v5.4h1.35c1.72,0,2.47-.17,3.01-.66.49-.46.77-1.18.77-2.01,0-1.23-.49-2.09-1.43-2.44Z"/><path d="m122.1,36.68c-.52,1.58-2.47,3.76-6.77,3.76-3.04,0-5.28-.92-6.4-2.67-.66-1.03-.86-1.84-.86-3.76v-13.89h4.1v13.11c0,1.23.11,1.95.34,2.38.46.89,1.41,1.38,2.73,1.38,1.75,0,2.87-.86,3.04-2.32.06-.43.06-.72.06-1.78v-12.77h4.08v13.43c0,1.89-.03,2.27-.32,3.13Z"/><path d="m138.15,23.46h-4.76v16.62h-4.07v-16.62h-4.88v-3.33h14.38l-.66,3.33Z"/><path d="m147.77,40.3c-2.98,0-5.19-.98-6.8-3.04-1.46-1.87-2.12-3.99-2.12-6.97,0-4.22,1.38-7.2,4.16-9.07,1.46-.98,2.96-1.41,4.85-1.41,2.41,0,4.59.77,6.34,2.3l-2.12,2.5c-1.29-1.06-2.64-1.55-4.16-1.55-1.18,0-2.18.34-2.87,1-1.35,1.29-1.69,3.44-1.69,6.43s.49,4.68,1.49,5.68c.75.72,1.84,1.12,3.13,1.12.89,0,1.61-.14,2.27-.49v-4.53h-3.04l-.52-3.27h7.72v9.53c-2.04,1.21-4.28,1.78-6.63,1.78Z"/><path d="m157.35,40.07v-19.94h11.36l-.52,3.27h-6.77v4.62h5.65v3.27h-5.65v5.34h7.55v3.44h-11.62Z"/><path d="m181.22,40.07c-.77-1.32-1.09-1.87-1.87-3.27-1.98-3.59-2.58-4.56-3.3-4.88-.2-.09-.37-.14-.63-.17v8.32h-3.93v-19.94h7.43c3.53,0,5.85,2.35,5.85,5.85,0,2.98-1.98,5.45-4.45,5.51.4.32.57.49.83.83,1.03,1.29,4.08,6.49,4.79,7.75h-4.73Zm-2.09-16.44c-.46-.17-1.29-.29-2.27-.29h-1.43v5.4h1.35c1.72,0,2.47-.17,3.01-.66.49-.46.77-1.18.77-2.01,0-1.23-.49-2.09-1.43-2.44Z"/><path d="m193.41,40.5c-2.27,0-4.79-.66-6.8-1.81l1.49-3.13c1.87.98,3.47,1.61,5.48,1.61,2.3,0,3.5-.95,3.5-2.73,0-1.29-.83-2.09-2.61-2.58l-2.21-.6c-1.98-.55-3.21-1.32-3.93-2.53-.55-.89-.83-1.92-.83-3.04,0-3.64,2.93-6.17,7.15-6.17,2.44,0,4.91.75,6.66,2.01l-1.89,2.87c-1.81-1.09-3.16-1.52-4.65-1.52-1.64,0-2.78.95-2.78,2.3,0,1.03.55,1.55,2.21,2.01l2.41.66c3.27.89,5.05,2.98,5.05,5.94,0,4.05-3.27,6.72-8.24,6.72Z"/></g></svg>